<?xml version="1.0" encoding="iso-8859-1"?>
<!-- Generator: Adobe Illustrator 19.0.0, SVG Export Plug-In . SVG Version: 6.00 Build 0)  -->
<svg version="1.1" id="Capa_1" xmlns="http://www.w3.org/2000/svg" xmlns:xlink="http://www.w3.org/1999/xlink" x="0px" y="0px"
	 viewBox="0 0 445.127 445.127" style="enable-background:new 0 0 445.127 445.127;" xml:space="preserve">
<linearGradient id="SVGID_1_" gradientUnits="userSpaceOnUse" x1="-24.0578" y1="582.5578" x2="-24.0578" y2="497.3578" gradientTransform="matrix(5.2245 0 0 -5.2245 348.2531 3043.5671)">
	<stop  offset="0" style="stop-color:#00EFD1"/>
	<stop  offset="1" style="stop-color:#00ACEA"/>
</linearGradient>
<path style="fill:url(#SVGID_1_);" d="M222.563,0C99.788,0,0,99.788,0,222.563s99.788,222.563,222.563,222.563
	s222.563-99.788,222.563-222.563S345.339,0,222.563,0z M374.596,338.547c-9.927-9.404-20.376-17.763-31.869-25.078
	c7.314-22.988,12.016-48.588,13.061-75.233h57.469C410.122,275.853,396.016,310.335,374.596,338.547z M31.869,238.237h57.469
	c1.045,26.645,5.747,51.722,13.061,74.71c-11.494,7.314-21.943,15.673-31.869,25.078C48.588,309.812,35.004,275.331,31.869,238.237z
	 M70.008,107.624c9.927,9.404,20.898,17.763,31.869,25.078c-7.314,22.988-11.494,48.065-13.061,74.71H31.347
	C35.004,169.796,48.588,135.314,70.008,107.624z M206.89,135.314c-22.988-2.09-45.453-7.837-65.829-17.241
	c14.629-33.437,37.094-60.082,65.829-78.367V135.314z M206.89,166.661v40.229h-86.204c1.045-20.898,4.18-40.751,9.927-59.559
	C154.122,158.302,180.245,164.571,206.89,166.661z M206.89,238.237v40.229c-26.645,2.09-52.767,8.359-76.8,19.331
	c-5.224-18.286-8.882-38.139-9.927-59.559H206.89z M206.89,309.812v95.608c-28.735-18.286-51.2-44.931-65.829-78.367
	C161.437,317.649,183.902,311.902,206.89,309.812z M238.237,309.812c22.988,2.09,45.453,7.837,65.829,17.763
	c-15.151,32.914-37.616,59.559-65.829,77.845V309.812z M238.237,278.465v-40.229h86.204c-1.045,20.898-4.702,41.273-9.927,59.559
	C291.004,286.824,264.882,280.555,238.237,278.465z M238.237,206.89v-40.229c26.645-2.09,52.767-8.359,76.278-19.331
	c5.224,18.808,8.882,38.661,9.927,59.559H238.237z M238.237,135.314V39.706c28.212,18.286,50.678,44.931,65.829,77.845
	C283.69,127.478,261.224,133.225,238.237,135.314z M293.094,44.931c22.465,8.882,42.841,21.943,60.604,38.661
	c-6.792,6.792-14.629,12.539-22.465,18.286C321.306,80.457,308.245,61.127,293.094,44.931z M113.894,102.4
	c-7.837-5.224-15.673-11.494-22.465-18.286c17.763-16.718,38.139-29.78,61.127-39.184C136.359,61.649,123.82,80.457,113.894,102.4z
	 M113.894,342.727c9.927,21.42,22.988,40.751,38.139,57.469c-22.988-8.882-43.363-22.465-61.127-39.184
	C98.22,354.22,105.535,348.473,113.894,342.727z M331.233,343.249c7.837,5.747,15.151,11.494,22.465,18.286
	c-17.241,16.196-37.616,29.78-60.604,38.661C308.245,384,321.306,364.669,331.233,343.249z M355.788,206.89
	c-1.045-26.645-5.747-51.722-13.061-75.233c11.494-7.314,21.943-15.673,31.869-25.078c21.42,28.212,35.527,62.694,38.661,100.31
	H355.788z"/>
<g>
</g>
<g>
</g>
<g>
</g>
<g>
</g>
<g>
</g>
<g>
</g>
<g>
</g>
<g>
</g>
<g>
</g>
<g>
</g>
<g>
</g>
<g>
</g>
<g>
</g>
<g>
</g>
<g>
</g>
</svg>
