<svg id="Capa_1" enable-background="new 0 0 512 512" height="512" viewBox="0 0 512 512" width="512" xmlns="http://www.w3.org/2000/svg"><g><g><path d="m440.012 504.016h-368.024c-35.348 0-64.004-28.656-64.004-64.004v-368.024c0-35.348 28.656-64.004 64.004-64.004h368.023c35.348 0 64.004 28.656 64.004 64.004v368.023c.001 35.349-28.655 64.005-64.003 64.005z" fill="#bef2f5"/></g><g><path d="m440.012 7.984h-368.024c0 13.256 10.746 24.002 24.001 24.002h344.022c22.093 0 40.003 17.91 40.003 40.003v344.021c0 13.256 10.746 24.001 24.001 24.001v-368.023c.001-35.348-28.655-64.004-64.003-64.004z" fill="#fff"/></g><g><path d="m79.989 191.996h72.005v240.015h-72.005z" fill="#fff"/></g><g><path d="m344.005 191.996c-27.972 0-53.312 11.099-72.004 29.063v-29.063h-72.005v240.015h72.005v-132.008c0-24.302 19.701-44.003 44.003-44.003s44.003 19.701 44.003 44.003v132.008h72.005v-152.01c-.001-48.604-39.402-88.005-88.007-88.005z" fill="#fff"/></g><g><path d="m223.998 396.009v-156.01c0-13.256-10.746-24.001-24.001-24.001v8.001 208.013h48.003v-12.002c0-6.628-5.373-12.001-12.001-12.001-6.628.001-12.001-5.372-12.001-12z" fill="#bef2f5"/></g><g><path d="m103.99 396.009v-156.01c0-13.256-10.746-24.001-24.001-24.001v216.014h48.003v-12.002c0-6.628-5.373-12.001-12.001-12.001-6.628.001-12.001-5.372-12.001-12z" fill="#bef2f5"/></g><g><circle cx="115.991" cy="115.991" fill="#fff" r="36.002"/></g><g><path d="m440.012 512h-368.024c-39.695 0-71.988-32.293-71.988-71.988v-368.024c0-39.695 32.293-71.988 71.988-71.988h368.023c39.696 0 71.989 32.293 71.989 71.988v368.023c0 39.696-32.293 71.989-71.988 71.989zm-368.024-496.031c-30.889 0-56.019 25.131-56.019 56.019v368.023c0 30.889 25.131 56.02 56.019 56.02h368.023c30.889 0 56.02-25.131 56.02-56.02v-368.023c0-30.889-25.131-56.019-56.02-56.019z" fill="#00abd5"/></g><g><path d="m151.993 439.995h-72.004c-4.409 0-7.984-3.575-7.984-7.984v-240.015c0-4.409 3.575-7.984 7.984-7.984h72.004c4.409 0 7.984 3.575 7.984 7.984v240.015c.001 4.409-3.575 7.984-7.984 7.984zm-64.019-15.969h56.035v-224.046h-56.035z" fill="#00abd5"/></g><g><path d="m432.011 439.995h-72.004c-4.409 0-7.984-3.575-7.984-7.984v-132.008c0-19.861-16.158-36.018-36.018-36.018s-36.018 16.158-36.018 36.018v132.008c0 4.409-3.575 7.984-7.984 7.984h-72.005c-4.409 0-7.984-3.575-7.984-7.984v-240.015c0-4.409 3.575-7.984 7.984-7.984h72.005c4.409 0 7.984 3.575 7.984 7.984v12.181c18.692-13.098 40.889-20.166 64.02-20.166 52.929 0 95.989 43.061 95.989 95.99v152.009c-.001 4.41-3.576 7.985-7.985 7.985zm-64.02-15.969h56.035v-144.024c0-44.124-35.897-80.021-80.021-80.021-24.858 0-48.465 9.53-66.473 26.836-2.306 2.216-5.715 2.844-8.661 1.589-2.944-1.254-4.856-4.145-4.856-7.346v-21.08h-56.035v224.046h56.036v-124.023c0-28.666 23.322-51.987 51.987-51.987 28.666 0 51.987 23.322 51.987 51.987v124.023z" fill="#00abd5"/></g><g><path d="m115.991 159.978c-24.254 0-43.986-19.732-43.986-43.986s19.732-43.986 43.986-43.986 43.986 19.732 43.986 43.986-19.731 43.986-43.986 43.986zm0-72.004c-15.449 0-28.018 12.568-28.018 28.018s12.568 28.018 28.018 28.018 28.018-12.568 28.018-28.018-12.568-28.018-28.018-28.018z" fill="#00abd5"/></g><g><path d="m304.003 512h-232.015c-39.695 0-71.988-32.293-71.988-71.988v-248.016c0-4.409 3.575-7.984 7.984-7.984s7.984 3.575 7.984 7.984v248.016c0 30.889 25.131 56.02 56.019 56.02h232.015c4.409 0 7.984 3.575 7.984 7.984s-3.574 7.984-7.983 7.984z" fill="#283246"/></g><g><path d="m127.992 439.995h-48.003c-4.409 0-7.984-3.575-7.984-7.984v-112.007c0-4.409 3.575-7.984 7.984-7.984s7.984 3.575 7.984 7.984v104.022h40.019c4.409 0 7.984 3.575 7.984 7.984.001 4.41-3.574 7.985-7.984 7.985z" fill="#283246"/></g></g></svg>